# xmcd
#
# Track frame offsets:
# 183
# 21870
# 39555
# 55435
# 78740
# 95380
# 105303
# 123540
# 142773
# 167643
# 193068
#
# Disc length: 2984 seconds
#
#
# Revision: 3
# Processed by: cddbd v1.5.1PL2 Copyright (c) Steve Scherf et al.
# Submitted via: FreeRIP 2.942 
#
DISCID=8e0ba60b
DTITLE=Big Sugar - Five Hundred Pounds
DYEAR=1993
DGENRE=Bluesrock
TTITLE0=Ride Like Hell
TTITLE1=Standing Around Crying
TTITLE2=I'm a Ram
TTITLE3=Sugar In My Coffee
TTITLE4=All Over Now
TTITLE5=AAA Aardvark Hotel
TTITLE6=How Many Times
TTITLE7=Deliver Me
TTITLE8=Still Waitin'
TTITLE9=Wild Ox Moan
TTITLE10=Ride On
EXTD=
EXTT0=
EXTT1=
EXTT2=
EXTT3=
EXTT4=
EXTT5=
EXTT6=
EXTT7=
EXTT8=
EXTT9=
EXTT10=
PLAYORDER=
